<svg xmlns="http://www.w3.org/2000/svg" viewBox="0 0 64 64">
  <defs>
    <radialGradient id="bg" cx="50%" cy="40%" r="60%">
      <stop offset="0%" stop-color="#2A0D52"/>
      <stop offset="100%" stop-color="#080010"/>
    </radialGradient>
    <linearGradient id="sb" x1="10%" y1="0%" x2="90%" y2="100%">
      <stop offset="0%" stop-color="#D8AAFF"/>
      <stop offset="100%" stop-color="#7240B0"/>
    </linearGradient>
  </defs>
  <rect width="64" height="64" rx="14" fill="url(#bg)"/>
  <path d="M42,21 C42,14 37,10 32,10 C27,10 22,14 22,21 C22,28 27,30 32,32 C37,34 42,37 42,43 C42,50 37,54 32,54 C27,54 22,50 22,43"
    fill="none" stroke="#3A1265" stroke-width="6" stroke-linecap="round"/>
  <path d="M42,21 C42,14 37,10 32,10 C27,10 22,14 22,21 C22,28 27,30 32,32 C37,34 42,37 42,43 C42,50 37,54 32,54 C27,54 22,50 22,43"
    fill="none" stroke="url(#sb)" stroke-width="5" stroke-linecap="round"/>
  <path d="M41,21 C39,16 36,11 32,11 C28,11 23,15 22,21"
    fill="none" stroke="rgba(255,255,255,0.5)" stroke-width="2" stroke-linecap="round"/>
  <g transform="translate(45,14)">
    <line x1="0" y1="-4" x2="0" y2="4" stroke="white" stroke-width="1.2" stroke-linecap="round"/>
    <line x1="-4" y1="0" x2="4" y2="0" stroke="white" stroke-width="1.2" stroke-linecap="round"/>
  </g>
</svg>
