<svg xmlns="http://www.w3.org/2000/svg" viewBox="0 0 64 64">
  <defs>
    <linearGradient id="s-outer" x1="10%" y1="0%" x2="90%" y2="100%">
      <stop offset="0%" stop-color="#C89EE8"/>
      <stop offset="50%" stop-color="#9B6CC8"/>
      <stop offset="100%" stop-color="#7040B0"/>
    </linearGradient>
    <linearGradient id="s-inner" x1="0%" y1="0%" x2="100%" y2="100%">
      <stop offset="0%" stop-color="#EDD8FF"/>
      <stop offset="100%" stop-color="#9060D0"/>
    </linearGradient>
  </defs>
  <!-- Light bg for favicon legibility in browser tabs -->
  <rect width="64" height="64" rx="14" fill="#F4EDFF"/>
  <path d="M42,20 C42,14 38,10 32,10 C26,10 22,14 22,20 C22,26 26,29 32,31 C38,33 42,36.5 42,42.5 C42,48.5 38,52 32,52 C26,52 22,48.5 22,42.5"
    fill="none" stroke="#8040C0" stroke-width="7" stroke-linecap="round" opacity="0.4"/>
  <path d="M42,20 C42,14 38,10 32,10 C26,10 22,14 22,20 C22,26 26,29 32,31 C38,33 42,36.5 42,42.5 C42,48.5 38,52 32,52 C26,52 22,48.5 22,42.5"
    fill="none" stroke="url(#s-outer)" stroke-width="5.5" stroke-linecap="round"/>
  <path d="M41,20.5 C40,15.5 37,11 32,11 C27,11 23,14.5 22.5,20"
    fill="none" stroke="white" stroke-width="2" stroke-linecap="round" opacity="0.6"/>
  <g transform="translate(47,13)">
    <line x1="0" y1="-5" x2="0" y2="5" stroke="#9060D0" stroke-width="1.4" stroke-linecap="round"/>
    <line x1="-5" y1="0" x2="5" y2="0" stroke="#9060D0" stroke-width="1.4" stroke-linecap="round"/>
  </g>
</svg>
