<svg xmlns="http://www.w3.org/2000/svg" viewBox="0 0 512 512">
  <defs>
    <radialGradient id="bg" cx="50%" cy="40%" r="55%">
      <stop offset="0%" stop-color="#2A0D52"/>
      <stop offset="100%" stop-color="#080010"/>
    </radialGradient>
    <linearGradient id="s-outer" x1="10%" y1="0%" x2="90%" y2="100%">
      <stop offset="0%" stop-color="#C89EE8"/>
      <stop offset="50%" stop-color="#9B6CC8"/>
      <stop offset="100%" stop-color="#7040B0"/>
    </linearGradient>
    <linearGradient id="s-inner" x1="0%" y1="0%" x2="100%" y2="100%">
      <stop offset="0%" stop-color="#EDD8FF"/>
      <stop offset="100%" stop-color="#9060D0"/>
    </linearGradient>
  </defs>
  <!-- Full-bleed dark bg for maskable -->
  <rect width="512" height="512" fill="url(#bg)"/>
  <path d="M330,178 C330,136 300,104 256,104 C212,104 182,136 182,178 C182,220 212,242 256,258 C300,274 330,298 330,342 C330,386 298,414 256,414 C214,414 182,386 182,342"
    fill="none" stroke="#8040C0" stroke-width="50" stroke-linecap="round" opacity="0.5"/>
  <path d="M330,178 C330,136 300,104 256,104 C212,104 182,136 182,178 C182,220 212,242 256,258 C300,274 330,298 330,342 C330,386 298,414 256,414 C214,414 182,386 182,342"
    fill="none" stroke="url(#s-outer)" stroke-width="42" stroke-linecap="round"/>
  <path d="M327,180 C325,138 296,108 256,108 C217,108 185,136 183,178 C183,220 213,241 256,258 C299,275 327,300 327,342 C327,384 296,410 256,410 C216,410 185,384 185,342"
    fill="none" stroke="url(#s-inner)" stroke-width="26" stroke-linecap="round"/>
  <path d="M324,180 C320,140 292,112 256,112 C221,112 186,138 185,178"
    fill="none" stroke="white" stroke-width="14" stroke-linecap="round" opacity="0.68"/>
  <g transform="translate(356,124)">
    <line x1="0" y1="-16" x2="0" y2="16" stroke="white" stroke-width="2.8" stroke-linecap="round"/>
    <line x1="-16" y1="0" x2="16" y2="0" stroke="white" stroke-width="2.8" stroke-linecap="round"/>
    <line x1="-10" y1="-10" x2="10" y2="10" stroke="white" stroke-width="1.8" stroke-linecap="round" opacity="0.62"/>
    <line x1="10" y1="-10" x2="-10" y2="10" stroke="white" stroke-width="1.8" stroke-linecap="round" opacity="0.62"/>
  </g>
</svg>
