<svg xmlns="http://www.w3.org/2000/svg" viewBox="0 0 512 512">
  <defs>
    <radialGradient id="bg" cx="50%" cy="40%" r="55%">
      <stop offset="0%" stop-color="#2A0D52"/>
      <stop offset="100%" stop-color="#080010"/>
    </radialGradient>
    <linearGradient id="s-body" x1="10%" y1="0%" x2="90%" y2="100%">
      <stop offset="0%" stop-color="#D8AAFF"/>
      <stop offset="45%" stop-color="#A87CCC"/>
      <stop offset="100%" stop-color="#6E38AA"/>
    </linearGradient>
  </defs>
  <rect width="512" height="512" fill="url(#bg)"/>
  <path d="M320,178 C320,136 290,104 256,104 C222,104 192,136 192,178 C192,220 222,242 256,258 C290,274 320,298 320,340 C320,382 288,410 256,410 C224,410 192,382 192,340"
    fill="none" stroke="#3A1265" stroke-width="44" stroke-linecap="round"/>
  <path d="M320,178 C320,136 290,104 256,104 C222,104 192,136 192,178 C192,220 222,242 256,258 C290,274 320,298 320,340 C320,382 288,410 256,410 C224,410 192,382 192,340"
    fill="none" stroke="url(#s-body)" stroke-width="38" stroke-linecap="round"/>
  <path d="M316,180 C312,140 284,108 256,108 C229,108 196,139 194,178"
    fill="none" stroke="rgba(255,255,255,0.48)" stroke-width="13" stroke-linecap="round"/>
  <g transform="translate(348,122)">
    <line x1="0" y1="-14" x2="0" y2="14" stroke="white" stroke-width="2.5" stroke-linecap="round"/>
    <line x1="-14" y1="0" x2="14" y2="0" stroke="white" stroke-width="2.5" stroke-linecap="round"/>
    <line x1="-9" y1="-9" x2="9" y2="9" stroke="white" stroke-width="1.6" stroke-linecap="round" opacity="0.6"/>
    <line x1="9" y1="-9" x2="-9" y2="9" stroke="white" stroke-width="1.6" stroke-linecap="round" opacity="0.6"/>
  </g>
</svg>
