<svg xmlns="http://www.w3.org/2000/svg" viewBox="0 0 512 512">
  <defs>
    <linearGradient id="s-outer" x1="10%" y1="0%" x2="90%" y2="100%">
      <stop offset="0%" stop-color="#C89EE8"/>
      <stop offset="50%" stop-color="#9B6CC8"/>
      <stop offset="100%" stop-color="#7040B0"/>
    </linearGradient>
    <linearGradient id="s-inner" x1="0%" y1="0%" x2="100%" y2="100%">
      <stop offset="0%" stop-color="#EDD8FF"/>
      <stop offset="60%" stop-color="#C8A0F0"/>
      <stop offset="100%" stop-color="#9060D0"/>
    </linearGradient>
  </defs>

  <!-- S outer border (depth) -->
  <path d="M335,170 C335,125 300,90 256,90 C212,90 177,125 177,170 C177,215 212,240 256,256 C300,272 335,297 335,342 C335,387 300,422 256,422 C212,422 177,387 177,342"
    fill="none" stroke="#5A1E9A" stroke-width="58" stroke-linecap="round" opacity="0.35"/>

  <!-- S shadow layer -->
  <path d="M338,174 C338,128 302,92 257,92 C212,92 177,128 177,174 C177,220 213,245 258,261 C303,277 338,302 338,348 C338,393 302,428 257,428 C212,428 177,393 177,348"
    fill="none" stroke="#8040C0" stroke-width="52" stroke-linecap="round" opacity="0.5"/>

  <!-- S main body -->
  <path d="M335,170 C335,125 300,90 256,90 C212,90 177,125 177,170 C177,215 212,240 256,256 C300,272 335,297 335,342 C335,387 300,422 256,422 C212,422 177,387 177,342"
    fill="none" stroke="url(#s-outer)" stroke-width="44" stroke-linecap="round"/>

  <!-- S inner bright fill -->
  <path d="M332,172 C330,128 298,96 256,96 C214,96 180,128 180,172 C180,216 214,240 256,256 C298,272 332,298 332,342 C332,386 298,418 256,418 C214,418 180,386 180,342"
    fill="none" stroke="url(#s-inner)" stroke-width="28" stroke-linecap="round"/>

  <!-- S top gloss highlight -->
  <path d="M328,174 C325,132 294,98 256,98 C219,98 184,130 182,172"
    fill="none" stroke="white" stroke-width="16" stroke-linecap="round" opacity="0.72"/>

  <!-- S mid highlight -->
  <path d="M182,174 C183,200 200,220 256,256"
    fill="none" stroke="white" stroke-width="8" stroke-linecap="round" opacity="0.3"/>

  <!-- S bottom gloss -->
  <path d="M184,344 C187,384 218,416 256,416 C294,416 325,385 328,346"
    fill="none" stroke="white" stroke-width="10" stroke-linecap="round" opacity="0.28"/>

  <!-- Sparkle large -->
  <g transform="translate(368,118)">
    <line x1="0" y1="-20" x2="0" y2="20" stroke="white" stroke-width="3" stroke-linecap="round"/>
    <line x1="-20" y1="0" x2="20" y2="0" stroke="white" stroke-width="3" stroke-linecap="round"/>
    <line x1="-13" y1="-13" x2="13" y2="13" stroke="white" stroke-width="2" stroke-linecap="round" opacity="0.65"/>
    <line x1="13" y1="-13" x2="-13" y2="13" stroke="white" stroke-width="2" stroke-linecap="round" opacity="0.65"/>
  </g>

  <!-- Sparkle small -->
  <g transform="translate(346,158)">
    <line x1="0" y1="-10" x2="0" y2="10" stroke="white" stroke-width="2.2" stroke-linecap="round" opacity="0.88"/>
    <line x1="-10" y1="0" x2="10" y2="0" stroke="white" stroke-width="2.2" stroke-linecap="round" opacity="0.88"/>
  </g>
</svg>
