<svg xmlns="http://www.w3.org/2000/svg" viewBox="0 0 512 512">
  <defs>
    <radialGradient id="bg" cx="50%" cy="40%" r="55%">
      <stop offset="0%" stop-color="#2A0D52"/>
      <stop offset="100%" stop-color="#080010"/>
    </radialGradient>
    <linearGradient id="s-body" x1="10%" y1="0%" x2="90%" y2="100%">
      <stop offset="0%" stop-color="#D8AAFF"/>
      <stop offset="45%" stop-color="#A87CCC"/>
      <stop offset="100%" stop-color="#6E38AA"/>
    </linearGradient>
  </defs>

  <!-- Background -->
  <rect width="512" height="512" rx="104" fill="url(#bg)"/>

  <!-- S ambient glow -->
  <path d="M335,170 C335,125 300,90 256,90 C212,90 177,125 177,170 C177,215 212,240 256,256 C300,272 335,297 335,342 C335,387 300,422 256,422 C212,422 177,387 177,342"
    fill="none" stroke="#9B5CC8" stroke-width="64" stroke-linecap="round" opacity="0.18"/>

  <!-- S depth shadow -->
  <path d="M338,174 C338,128 302,92 257,92 C212,92 177,128 177,174 C177,220 213,245 258,261 C303,277 338,302 338,348 C338,393 302,428 257,428 C212,428 177,393 177,348"
    fill="none" stroke="#3A1265" stroke-width="46" stroke-linecap="round"/>

  <!-- S main body -->
  <path d="M335,170 C335,125 300,90 256,90 C212,90 177,125 177,170 C177,215 212,240 256,256 C300,272 335,297 335,342 C335,387 300,422 256,422 C212,422 177,387 177,342"
    fill="none" stroke="url(#s-body)" stroke-width="40" stroke-linecap="round"/>

  <!-- S top gloss highlight -->
  <path d="M330,172 C327,130 295,94 256,94 C218,94 183,128 181,170"
    fill="none" stroke="rgba(255,255,255,0.52)" stroke-width="15" stroke-linecap="round"/>

  <!-- S bottom subtle highlight -->
  <path d="M183,342 C186,382 218,418 257,418 C296,418 328,385 330,346"
    fill="none" stroke="rgba(255,255,255,0.14)" stroke-width="11" stroke-linecap="round"/>

  <!-- Sparkle large -->
  <g transform="translate(366,122)">
    <line x1="0" y1="-17" x2="0" y2="17" stroke="white" stroke-width="2.8" stroke-linecap="round"/>
    <line x1="-17" y1="0" x2="17" y2="0" stroke="white" stroke-width="2.8" stroke-linecap="round"/>
    <line x1="-11" y1="-11" x2="11" y2="11" stroke="white" stroke-width="1.8" stroke-linecap="round" opacity="0.65"/>
    <line x1="11" y1="-11" x2="-11" y2="11" stroke="white" stroke-width="1.8" stroke-linecap="round" opacity="0.65"/>
  </g>

  <!-- Sparkle small -->
  <g transform="translate(344,161)">
    <line x1="0" y1="-9" x2="0" y2="9" stroke="white" stroke-width="2" stroke-linecap="round" opacity="0.85"/>
    <line x1="-9" y1="0" x2="9" y2="0" stroke="white" stroke-width="2" stroke-linecap="round" opacity="0.85"/>
  </g>
</svg>
