<svg xmlns="http://www.w3.org/2000/svg" viewBox="0 0 210 56" fill="none">
  <defs>
    <linearGradient id="s-outer" x1="10%" y1="0%" x2="90%" y2="100%">
      <stop offset="0%" stop-color="#C89EE8"/>
      <stop offset="50%" stop-color="#9B6CC8"/>
      <stop offset="100%" stop-color="#7040B0"/>
    </linearGradient>
    <linearGradient id="s-inner" x1="0%" y1="0%" x2="100%" y2="100%">
      <stop offset="0%" stop-color="#EDD8FF"/>
      <stop offset="100%" stop-color="#9060D0"/>
    </linearGradient>
  </defs>

  <!-- S mark (transparent bg, ~56x56 canvas) -->
  <!-- S outer -->
  <path d="M38,18 C38,12 34,8.5 28,8.5 C22,8.5 18,12 18,18 C18,24 22,27 28,29 C34,31 38,34.5 38,40.5 C38,46.5 34,50 28,50 C22,50 18,46.5 18,40.5"
    stroke="#8040C0" stroke-width="7" stroke-linecap="round" opacity="0.45"/>
  <!-- S body -->
  <path d="M38,18 C38,12 34,8.5 28,8.5 C22,8.5 18,12 18,18 C18,24 22,27 28,29 C34,31 38,34.5 38,40.5 C38,46.5 34,50 28,50 C22,50 18,46.5 18,40.5"
    stroke="url(#s-outer)" stroke-width="5.5" stroke-linecap="round"/>
  <!-- S inner bright -->
  <path d="M37,18.5 C36.5,13 33,9.5 28,9.5 C23,9.5 19,13 19,18.5 C19,24 23,27 28,29 C33,31 37,34.5 37,40 C37,45.5 33,49 28,49 C23,49 19,45.5 19,40"
    stroke="url(#s-inner)" stroke-width="3" stroke-linecap="round"/>
  <!-- S gloss highlight top -->
  <path d="M37,18.5 C36,14 33,10 28,10 C23,10 19,13.5 18.5,18"
    stroke="white" stroke-width="2" stroke-linecap="round" opacity="0.7"/>

  <!-- Sparkle -->
  <g transform="translate(44,12)">
    <line x1="0" y1="-4.5" x2="0" y2="4.5" stroke="white" stroke-width="1.2" stroke-linecap="round"/>
    <line x1="-4.5" y1="0" x2="4.5" y2="0" stroke="white" stroke-width="1.2" stroke-linecap="round"/>
    <line x1="-3" y1="-3" x2="3" y2="3" stroke="white" stroke-width="0.8" stroke-linecap="round" opacity="0.6"/>
    <line x1="3" y1="-3" x2="-3" y2="3" stroke="white" stroke-width="0.8" stroke-linecap="round" opacity="0.6"/>
  </g>
  <g transform="translate(41.5,19)">
    <line x1="0" y1="-2.5" x2="0" y2="2.5" stroke="white" stroke-width="1" stroke-linecap="round" opacity="0.8"/>
    <line x1="-2.5" y1="0" x2="2.5" y2="0" stroke="white" stroke-width="1" stroke-linecap="round" opacity="0.8"/>
  </g>

  <!-- Wordmark -->
  <text x="62" y="36"
    font-family="Inter,-apple-system,BlinkMacSystemFont,sans-serif"
    font-size="25" font-weight="700" fill="#2D2424" letter-spacing="-0.4">simpli</text>
</svg>
